<svg width="24" height="24" viewBox="0 0 24 24" fill="none" xmlns="http://www.w3.org/2000/svg">
<g clip-path="url(#clip0_25_3767)">
<path d="M3 3H8V0H3C2.20435 0 1.44129 0.31607 0.87868 0.87868C0.31607 1.44129 0 2.20435 0 3L0 21C0 21.7956 0.31607 22.5587 0.87868 23.1213C1.44129 23.6839 2.20435 24 3 24H8V21H3V3Z" fill="#3852AE"/>
<path d="M22.9481 9.52496L18.3621 4.93896L16.2411 7.06096L19.6541 10.473L5.00012 10.5V13.5L19.7001 13.473L16.2341 16.939L18.3551 19.061L22.9421 14.475C23.5979 13.8186 23.9668 12.929 23.9679 12.0012C23.969 11.0734 23.6023 10.1829 22.9481 9.52496Z" fill="#3852AE"/>
</g>
<defs>
<clipPath id="clip0_25_3767">
<rect width="24" height="24" fill="white"/>
</clipPath>
</defs>
</svg>
