<svg width="17" height="21" viewBox="0 0 17 21" fill="none" xmlns="http://www.w3.org/2000/svg">
<path d="M10.375 1H2.87496C2.37777 1 1.90077 1.19001 1.54922 1.52782C1.19756 1.86668 1 2.32483 1 2.80303V17.2304C1 17.7086 1.19756 18.1678 1.54922 18.5056C1.90077 18.8434 2.37777 19.0334 2.87496 19.0334H14.1249C14.6222 19.0334 15.0991 18.8434 15.4508 18.5056C15.8024 18.1678 16 17.7086 16 17.2304V6.41012M10.375 1L16 6.41012M10.375 1V6.41012H16M12.25 10.9187H4.75003M12.25 14.5248H4.75003M6.62499 7.31164H4.75003" stroke="white" stroke-width="2" stroke-linecap="round" stroke-linejoin="round"/>
</svg>
