<svg width="19" height="19" viewBox="0 0 19 19" fill="none" xmlns="http://www.w3.org/2000/svg">
<path d="M14.25 7.125C14.25 5.23533 13.4993 3.42306 12.1631 2.08686C10.8269 0.750668 9.01467 0 7.125 0C5.23533 0 3.42306 0.750668 2.08686 2.08686C0.750668 3.42306 0 5.23533 0 7.125L0 14.25H7.125C9.01402 14.2479 10.8251 13.4966 12.1608 12.1608C13.4966 10.8251 14.2479 9.01402 14.25 7.125V7.125ZM7.125 11.875H2.375V7.125C2.375 6.18554 2.65358 5.26718 3.17552 4.48604C3.69746 3.70491 4.4393 3.09609 5.30725 2.73657C6.1752 2.37706 7.13027 2.28299 8.05168 2.46627C8.97309 2.64955 9.81946 3.10194 10.4838 3.76624C11.1481 4.43054 11.6005 5.27691 11.7837 6.19832C11.967 7.11973 11.8729 8.0748 11.5134 8.94275C11.1539 9.8107 10.5451 10.5525 9.76396 11.0745C8.98283 11.5964 8.06446 11.875 7.125 11.875V11.875ZM19 12.6667V19H12.6667C11.556 18.9989 10.4652 18.7057 9.50368 18.1499C8.54213 17.5941 7.74365 16.7952 7.18833 15.8333C8.08175 15.8271 8.96885 15.6829 9.81825 15.4058C10.186 15.791 10.628 16.0976 11.1176 16.3072C11.6072 16.5167 12.1341 16.6248 12.6667 16.625H16.625V12.6667C16.6246 12.1336 16.5161 11.6062 16.306 11.1164C16.0959 10.6265 15.7886 10.1843 15.4027 9.81667C15.6806 8.96794 15.8259 8.08139 15.8333 7.18833C16.7952 7.74365 17.5941 8.54213 18.1499 9.50368C18.7057 10.4652 18.9989 11.556 19 12.6667Z" fill="white"/>
</svg>
