<svg width="21" height="21" viewBox="0 0 21 21" fill="none" xmlns="http://www.w3.org/2000/svg">
<path d="M14.8751 0H6.12514C4.96524 0.00138938 3.85325 0.462772 3.03308 1.28294C2.21291 2.10311 1.75153 3.2151 1.75014 4.375V17.5C1.75014 18.4283 2.11889 19.3185 2.77526 19.9749C3.43164 20.6313 4.32188 21 5.25014 21H14.8751C16.035 20.9986 17.147 20.5372 17.9672 19.7171C18.7874 18.8969 19.2487 17.7849 19.2501 16.625V4.375C19.2487 3.2151 18.7874 2.10311 17.9672 1.28294C17.147 0.462772 16.035 0.00138938 14.8751 0V0ZM17.5001 4.375V14H7.00014V1.75H14.8751C15.5713 1.75 16.239 2.02656 16.7313 2.51884C17.2236 3.01113 17.5001 3.67881 17.5001 4.375ZM5.25014 1.9005V14C4.63556 13.9995 4.03179 14.1616 3.50014 14.4699V4.375C3.50021 3.83223 3.66854 3.30283 3.98194 2.85968C4.29534 2.41653 4.73841 2.08142 5.25014 1.9005V1.9005ZM14.8751 19.25H5.25014C4.78601 19.25 4.34089 19.0656 4.0127 18.7374C3.68451 18.4092 3.50014 17.9641 3.50014 17.5C3.50014 17.0359 3.68451 16.5908 4.0127 16.2626C4.34089 15.9344 4.78601 15.75 5.25014 15.75H17.5001V16.625C17.5001 17.3212 17.2236 17.9889 16.7313 18.4812C16.239 18.9734 15.5713 19.25 14.8751 19.25Z" fill="white"/>
</svg>
