<svg width="21" height="21" viewBox="0 0 21 21" fill="none" xmlns="http://www.w3.org/2000/svg">
<path d="M10.25 12.8357C11.6652 12.8357 12.8125 11.6866 12.8125 10.269C12.8125 8.85135 11.6652 7.70221 10.25 7.70221C8.8348 7.70221 7.6875 8.85135 7.6875 10.269C7.6875 11.6866 8.8348 12.8357 10.25 12.8357Z" stroke="white" stroke-width="2" stroke-linecap="round" stroke-linejoin="round"/>
<path d="M16.5709 12.8358C16.4572 13.0942 16.4233 13.3807 16.4735 13.6583C16.5238 13.9358 16.6559 14.1923 16.8528 14.3936L16.904 14.4448C17.0629 14.604 17.1889 14.7924 17.2748 15.0008C17.3608 15.2082 17.4052 15.4306 17.4052 15.656C17.4052 15.8804 17.3608 16.1038 17.2748 16.3112C17.1889 16.5196 17.0629 16.7079 16.904 16.8672C16.7454 17.0255 16.5571 17.1517 16.3497 17.2379C16.1423 17.324 15.9199 17.3691 15.6954 17.3691C15.4709 17.3691 15.2486 17.324 15.0412 17.2379C14.8338 17.1517 14.6454 17.0255 14.4867 16.8672L14.4356 16.8151C14.2343 16.6177 13.9786 16.4855 13.7015 16.4354C13.4244 16.3853 13.1386 16.4194 12.881 16.5326C12.6284 16.6418 12.4129 16.8221 12.2612 17.0516C12.1094 17.281 12.0278 17.5495 12.0267 17.825V17.9703C12.0267 18.4251 11.8469 18.8599 11.5265 19.1805C11.2061 19.5021 10.7716 19.6824 10.3185 19.6824C9.86535 19.6824 9.43085 19.5021 9.11045 19.1805C8.79015 18.8599 8.61015 18.4251 8.61015 17.9703V17.8941C8.60355 17.6106 8.51205 17.336 8.34745 17.1056C8.18295 16.8752 7.95305 16.6989 7.68765 16.6017C7.43005 16.4875 7.14425 16.4535 6.86715 16.5036C6.59005 16.5547 6.33435 16.6869 6.13305 16.8843L6.08175 16.9353C5.92315 17.0946 5.73475 17.2209 5.52735 17.307C5.31995 17.3932 5.09765 17.4373 4.87315 17.4373C4.64865 17.4373 4.42635 17.3932 4.21895 17.307C4.01155 17.2209 3.82315 17.0946 3.66455 16.9353C3.50565 16.776 3.37965 16.5877 3.29365 16.3793C3.20775 16.1719 3.16345 15.9495 3.16345 15.7241C3.16345 15.4997 3.20775 15.2763 3.29365 15.0689C3.37965 14.8615 3.50565 14.6721 3.66455 14.5138L3.71575 14.4618C3.91265 14.2604 4.04475 14.0039 4.09505 13.7264C4.14525 13.4489 4.11135 13.1623 3.99765 12.9049C3.88935 12.6514 3.70955 12.436 3.48045 12.2837C3.25125 12.1314 2.98265 12.0503 2.70785 12.0493H2.56265C2.10955 12.0493 1.67505 11.869 1.35465 11.5474C1.03425 11.2268 0.854248 10.7909 0.854248 10.3371C0.854248 9.88327 1.03425 9.44845 1.35465 9.12686C1.67505 8.80627 2.10955 8.62593 2.56265 8.62593H2.63955C2.92225 8.61892 3.19645 8.52775 3.42645 8.36244C3.65645 8.19814 3.83165 7.96774 3.92925 7.70125C4.04305 7.44377 4.07695 7.15723 4.02665 6.87972C3.97645 6.6022 3.84435 6.34572 3.64745 6.14435L3.59615 6.09323C3.43735 5.93393 3.31135 5.74559 3.22535 5.5372C3.13935 5.32982 3.09515 5.10641 3.09515 4.882C3.09515 4.65658 3.13935 4.43418 3.22535 4.22679C3.31135 4.01841 3.43735 3.83007 3.59615 3.67077C3.75485 3.51148 3.94325 3.38525 4.15065 3.30009C4.35805 3.21393 4.58035 3.16887 4.80485 3.16887C5.02935 3.16887 5.25165 3.21393 5.45905 3.30009C5.66635 3.38525 5.85485 3.51148 6.01345 3.67077L6.06475 3.72287C6.26605 3.92024 6.52175 4.05245 6.79875 4.10254C7.07585 4.15263 7.36165 4.11861 7.61925 4.0044H7.68765C7.94025 3.8962 8.15575 3.71583 8.30745 3.48641C8.45925 3.25698 8.54075 2.98851 8.54175 2.713V2.56674C8.54175 2.1129 8.72175 1.67808 9.04215 1.35649C9.36255 1.03589 9.79705 0.85556 10.2501 0.85556C10.7032 0.85556 11.1377 1.03589 11.4581 1.35649C11.7784 1.67808 11.9585 2.1129 11.9585 2.56674V2.64385C11.9596 2.91936 12.041 3.18886 12.1927 3.41829C12.3445 3.64771 12.5599 3.82808 12.8126 3.93628C13.0702 4.05049 13.356 4.08451 13.6331 4.03442C13.9102 3.98333 14.1659 3.85108 14.3672 3.65371L14.4184 3.60265C14.5771 3.44336 14.7655 3.31709 14.9729 3.23093C15.1803 3.14477 15.4027 3.10068 15.6272 3.10068C15.8517 3.10068 16.0739 3.14477 16.2812 3.23093C16.4886 3.31709 16.6771 3.44336 16.8358 3.60265C16.9946 3.76195 17.1206 3.95031 17.2066 4.1577C17.2926 4.36608 17.3368 4.58846 17.3368 4.81388C17.3368 5.03829 17.2926 5.2607 17.2066 5.46908C17.1206 5.67647 16.9946 5.86583 16.8358 6.02413L16.7845 6.07623C16.5875 6.2776 16.4555 6.53408 16.4053 6.8116C16.3551 7.08911 16.389 7.37465 16.5027 7.63313V7.70125C16.611 7.95471 16.7906 8.17111 17.0198 8.32239C17.249 8.47467 17.5175 8.55681 17.7924 8.55781H17.9376C18.3907 8.55781 18.8252 8.73815 19.1456 9.05874C19.4659 9.37933 19.646 9.81515 19.646 10.269C19.646 10.7228 19.4659 11.1586 19.1456 11.4792C18.8252 11.7998 18.3907 11.9802 17.9376 11.9802H17.8607C17.5858 11.9812 17.3174 12.0633 17.0882 12.2156C16.8591 12.3669 16.6792 12.5833 16.5709 12.8358Z" stroke="white" stroke-width="2" stroke-linecap="round" stroke-linejoin="round"/>
</svg>
