<svg width="24" height="21" viewBox="0 0 24 21" fill="none" xmlns="http://www.w3.org/2000/svg">
<path d="M24 19.5855V12.5856C23.9974 10.1994 23.0483 7.91178 21.361 6.22453C19.6738 4.53728 17.3861 3.58822 15 3.58557H10.17V1.99957C10.1699 1.60407 10.0526 1.21747 9.8328 0.888656C9.61303 0.559836 9.30071 0.303557 8.93531 0.152218C8.56991 0.000877722 8.16784 -0.038728 7.77994 0.038407C7.39203 0.115542 7.0357 0.305955 6.756 0.585573L0.875998 6.46456C0.313583 7.02715 -0.0023632 7.79007 -0.0023632 8.58556C-0.0023632 9.38105 0.313583 10.144 0.875998 10.7066L6.756 16.5856C7.0357 16.8652 7.39203 17.0556 7.77994 17.1327C8.16784 17.2099 8.56991 17.1702 8.93531 17.0189C9.30071 16.8676 9.61303 16.6113 9.8328 16.2825C10.0526 15.9536 10.1699 15.5671 10.17 15.1716V13.5856H16C17.5908 13.5871 19.116 14.2198 20.2409 15.3447C21.3658 16.4695 21.9984 17.9947 22 19.5855C22 19.8508 22.1054 20.1051 22.2929 20.2927C22.4804 20.4802 22.7348 20.5855 23 20.5855C23.2652 20.5855 23.5196 20.4802 23.7071 20.2927C23.8946 20.1051 24 19.8508 24 19.5855ZM8.17 4.58557C8.17 4.85078 8.27536 5.10514 8.46289 5.29267C8.65043 5.48021 8.90478 5.58557 9.17 5.58557H15C16.8559 5.58768 18.6351 6.32586 19.9474 7.63815C21.2597 8.95045 21.9979 10.7297 22 12.5856V14.2996C21.2504 13.4465 20.3275 12.7632 19.2928 12.2951C18.2582 11.8271 17.1356 11.5852 16 11.5856H9.17C8.90478 11.5856 8.65043 11.6909 8.46289 11.8785C8.27536 12.066 8.17 12.3203 8.17 12.5856V15.1716L2.291 9.29256C2.10353 9.10503 1.99821 8.85073 1.99821 8.58556C1.99821 8.3204 2.10353 8.06609 2.291 7.87856L8.17 1.99957V4.58557Z" fill="white"/>
</svg>
